<svg width="46" height="46" viewBox="0 0 46 46" fill="none" xmlns="http://www.w3.org/2000/svg">
<g clip-path="url(#clip0_4_15)">
<path opacity="0.4" d="M38.9852 36.9065H27.5966C26.4855 36.9065 25.5818 37.8245 25.5818 38.9532C25.5818 40.0841 26.4855 41 27.5966 41H38.9852C40.0963 41 41 40.0841 41 38.9532C41 37.8245 40.0963 36.9065 38.9852 36.9065Z" fill="#00825A"/>
<path d="M19.618 12.8077L30.4098 21.5279C30.6701 21.7364 30.7145 22.1191 30.5114 22.3857L17.7175 39.0564C16.9132 40.0862 15.728 40.6689 14.4582 40.6904L7.47392 40.7764C7.10143 40.7807 6.7755 40.5227 6.69084 40.1529L5.10351 33.2515C4.82837 31.9831 5.10351 30.6716 5.90776 29.6611L18.7651 12.9109C18.9725 12.6422 19.3556 12.5949 19.618 12.8077Z" fill="#00825A"/>
<path opacity="0.4" d="M35.2412 16.3309L33.1607 18.928C32.9512 19.1925 32.5745 19.2355 32.3141 19.0248C29.785 16.978 23.3087 11.7257 21.5118 10.2702C21.2494 10.0552 21.2134 9.6725 21.4251 9.4059L23.4314 6.91411C25.2516 4.57067 28.4262 4.35568 30.9871 6.39813L33.929 8.74157C35.1353 9.68754 35.9396 10.9345 36.2147 12.246C36.5322 13.6886 36.1936 15.1054 35.2412 16.3309Z" fill="#00825A"/>
</g>
<defs>
<clipPath id="clip0_4_15">
<rect width="36" height="36" fill="white" transform="translate(5 5)"/>
</clipPath>
</defs>
</svg>
