<svg width="47" height="43" viewBox="0 0 47 43" fill="none" xmlns="http://www.w3.org/2000/svg">
<g clip-path="url(#clip0_4_16)">
<path d="M28.9637 3.6001C28.8786 4.03751 28.8362 4.48212 28.837 4.92771C28.837 8.92549 32.0826 12.1663 36.0863 12.1663C36.5271 12.1642 36.9669 12.1218 37.4 12.0399V26.3907C37.4 32.4282 33.8387 36.0001 27.7924 36.0001H14.6235C8.56131 36.0001 5 32.4282 5 26.3907V13.2411C5 7.20361 8.56131 3.6001 14.6235 3.6001H28.9637ZM28.97 14.403C28.618 14.4536 28.3016 14.6445 28.0931 14.9322L23.7562 20.5113L18.8179 16.6233C18.5359 16.4037 18.1773 16.3067 17.8229 16.3543C17.4684 16.4018 17.1482 16.59 16.9343 16.8762L11.6161 23.7355C11.4292 23.9685 11.3286 24.2588 11.3312 24.5574L11.3359 24.756C11.3874 25.278 11.7455 25.7291 12.2583 25.8909C12.8352 26.0731 13.4625 25.8433 13.7846 25.3318L18.2322 19.5788L23.1706 23.451C23.4515 23.6775 23.8125 23.7801 24.1707 23.7354C24.5289 23.6907 24.8535 23.5025 25.07 23.214L30.2141 16.5759V16.5443C30.6544 15.9525 30.5421 15.1181 29.9608 14.6635C29.6795 14.4463 29.322 14.3523 28.97 14.403Z" fill="#00825A"/>
<path opacity="0.4" d="M36.5 9C38.9853 9 41 6.98528 41 4.5C41 2.01472 38.9853 0 36.5 0C34.0147 0 32 2.01472 32 4.5C32 6.98528 34.0147 9 36.5 9Z" fill="#00825A"/>
</g>
<defs>
<clipPath id="clip0_4_16">
<rect width="36" height="36" fill="white" transform="translate(5)"/>
</clipPath>
</defs>
</svg>
