<svg width="50" height="47" viewBox="0 0 50 47" fill="none" xmlns="http://www.w3.org/2000/svg">
<g clip-path="url(#clip0_4_17)">
<path d="M25.073 29.3771C22.0245 29.3771 19.5585 27.0021 19.5585 24.0191C19.5585 21.0361 22.0245 18.6421 25.073 18.6421C28.1215 18.6421 30.5292 21.0361 30.5292 24.0191C30.5292 27.0021 28.1215 29.3771 25.073 29.3771Z" fill="#00825A"/>
<path opacity="0.4" d="M42.5872 28.503C42.2183 27.933 41.6941 27.363 41.0145 27.002C40.4708 26.736 40.1213 26.299 39.8106 25.786C38.8203 24.152 39.4028 22.005 41.0533 21.036C42.995 19.953 43.6164 17.54 42.4902 15.659L41.1892 13.417C40.0824 11.536 37.6553 10.871 35.733 11.973C34.0243 12.885 31.8301 12.277 30.8398 10.662C30.5292 10.13 30.3544 9.56 30.3933 8.99C30.4515 8.249 30.2185 7.546 29.869 6.976C29.1506 5.798 27.8496 5 26.4127 5H23.6749C22.2575 5.038 20.9565 5.798 20.2381 6.976C19.8691 7.546 19.6555 8.249 19.6944 8.99C19.7332 9.56 19.5585 10.13 19.2478 10.662C18.2575 12.277 16.0634 12.885 14.3741 11.973C12.4324 10.871 10.0246 11.536 8.89842 13.417L7.59747 15.659C6.49069 17.54 7.11204 19.953 9.03434 21.036C10.6848 22.005 11.2673 24.152 10.2965 25.786C9.96637 26.299 9.61686 26.736 9.07318 27.002C8.41299 27.363 7.83048 27.933 7.5198 28.503C6.80137 29.681 6.8402 31.163 7.55864 32.398L8.89842 34.678C9.61686 35.894 10.9567 36.654 12.3547 36.654C13.0149 36.654 13.7916 36.464 14.4129 36.084C14.8983 35.761 15.4809 35.647 16.1216 35.647C18.0439 35.647 19.6555 37.224 19.6944 39.105C19.6944 41.29 21.4808 43 23.7332 43H26.3739C28.6069 43 30.3933 41.29 30.3933 39.105C30.4515 37.224 32.0631 35.647 33.9854 35.647C34.6068 35.647 35.1893 35.761 35.6941 36.084C36.3155 36.464 37.0728 36.654 37.7524 36.654C39.131 36.654 40.4708 35.894 41.1892 34.678L42.5484 32.398C43.2474 31.125 43.3057 29.681 42.5872 28.503Z" fill="#00825A"/>
</g>
<defs>
<clipPath id="clip0_4_17">
<rect width="37" height="38" fill="white" transform="translate(7 5)"/>
</clipPath>
</defs>
</svg>
